# Vectary OBJ Export units=mm
mtllib Player.mtl 
o 000_Layer_1
g Layer_1
usemtl Default material_0
v 43.325 -3.236 0.000
v 43.325 -8.200 0.000
v 33.099 -8.200 0.000
v 33.099 0.764 0.000
v 22.873 -8.200 0.000
v 22.873 1.764 0.000
v 12.647 -8.200 0.000
v 12.647 2.764 0.000
v 2.421 -8.200 0.000
v 2.421 3.764 0.000
v -7.805 -8.200 0.000
v -7.805 3.764 0.000
v -18.031 -8.200 0.000
v -18.031 2.764 0.000
v -28.258 -8.200 0.000
v -28.258 1.764 0.000
v -38.484 -8.200 0.000
v -38.484 0.764 0.000
v -48.710 -8.200 0.000
v -48.710 -3.236 0.000
v 43.325 -3.236 32.712
v 43.325 -8.200 32.712
v 33.099 -8.200 32.712
v 33.099 0.764 32.712
v 22.873 -8.200 32.712
v 22.873 1.764 32.712
v 12.647 -8.200 32.712
v 12.647 2.764 32.712
v 2.421 -8.200 32.712
v 2.421 3.764 32.712
v -7.805 -8.200 32.712
v -7.805 3.764 32.712
v -18.031 -8.200 32.712
v -18.031 2.764 32.712
v -28.258 -8.200 32.712
v -28.258 1.764 32.712
v -38.484 -8.200 32.712
v -38.484 0.764 32.712
v -48.710 -8.200 32.712
v -48.710 -3.236 32.712
vn 0.000 0.000 -1.000
vn 1.000 0.000 0.000
vn 0.364 0.931 0.000
vn 0.000 0.000 -1.000
vn 1.000 0.000 0.000
vn 0.000 -1.000 0.000
vn 0.000 0.000 -1.000
vn 0.000 -1.000 0.000
vn 0.000 0.000 -1.000
vn 0.233 0.972 0.000
vn 0.000 0.000 -1.000
vn 0.000 -1.000 0.000
vn 0.000 0.000 -1.000
vn 0.097 0.995 0.000
vn 0.000 0.000 -1.000
vn 0.000 -1.000 0.000
vn 0.000 0.000 -1.000
vn 0.097 0.995 0.000
vn 0.000 0.000 -1.000
vn 0.000 -1.000 0.000
vn 0.000 0.000 -1.000
vn 0.049 0.999 0.000
vn 0.000 0.000 -1.000
vn 0.000 -1.000 0.000
vn 0.000 0.000 -1.000
vn -0.049 0.999 0.000
vn 0.000 0.000 -1.000
vn 0.000 -1.000 0.000
vn 0.000 0.000 -1.000
vn -0.097 0.995 0.000
vn 0.000 0.000 -1.000
vn 0.000 -1.000 0.000
vn 0.000 0.000 -1.000
vn -0.097 0.995 0.000
vn 0.000 0.000 -1.000
vn 0.000 -1.000 0.000
vn 0.000 0.000 -1.000
vn -0.233 0.972 0.000
vn 0.000 0.000 -1.000
vn 0.000 -1.000 0.000
vn -1.000 0.000 0.000
vn 0.000 0.000 -1.000
vn -0.364 0.931 0.000
vn -1.000 0.000 0.000
vn 0.000 0.000 1.000
vn 1.000 0.000 0.000
vn 0.364 0.931 0.000
vn 0.000 0.000 1.000
vn 1.000 0.000 0.000
vn 0.000 -1.000 0.000
vn 0.000 0.000 1.000
vn 0.000 -1.000 0.000
vn 0.000 0.000 1.000
vn 0.233 0.972 0.000
vn -0.000 0.000 1.000
vn 0.000 -1.000 0.000
vn -0.000 0.000 1.000
vn 0.097 0.995 0.000
vn -0.000 0.000 1.000
vn 0.000 -1.000 0.000
vn -0.000 0.000 1.000
vn 0.097 0.995 0.000
vn -0.000 0.000 1.000
vn 0.000 -1.000 0.000
vn -0.000 0.000 1.000
vn 0.049 0.999 0.000
vn 0.000 0.000 1.000
vn 0.000 -1.000 0.000
vn 0.000 0.000 1.000
vn -0.049 0.999 0.000
vn 0.000 0.000 1.000
vn 0.000 -1.000 0.000
vn 0.000 0.000 1.000
vn -0.097 0.995 0.000
vn 0.000 0.000 1.000
vn 0.000 -1.000 0.000
vn 0.000 0.000 1.000
vn -0.097 0.995 0.000
vn -0.000 0.000 1.000
vn 0.000 -1.000 0.000
vn -0.000 0.000 1.000
vn -0.233 0.972 0.000
vn -0.000 0.000 1.000
vn 0.000 -1.000 0.000
vn -1.000 0.000 0.000
vn -0.000 0.000 1.000
vn -0.364 0.931 0.000
vn -1.000 0.000 0.000
f 1//1 2//4 3//7 4//9 
f 4//9 3//7 5//11 6//13 
f 6//13 5//11 7//15 8//17 
f 8//17 7//15 9//19 10//21 
f 10//21 9//19 11//23 12//25 
f 12//25 11//23 13//27 14//29 
f 14//29 13//27 15//31 16//33 
f 16//33 15//31 17//35 18//37 
f 18//37 17//35 19//39 20//42 
f 24//53 23//51 22//48 21//45 
f 26//57 25//55 23//51 24//53 
f 28//61 27//59 25//55 26//57 
f 30//65 29//63 27//59 28//61 
f 32//69 31//67 29//63 30//65 
f 34//73 33//71 31//67 32//69 
f 36//77 35//75 33//71 34//73 
f 38//81 37//79 35//75 36//77 
f 40//86 39//83 37//79 38//81 
f 1//2 21//46 22//49 2//5 
f 22//50 23//52 3//8 2//6 
f 1//3 4//10 24//54 21//47 
f 23//52 25//56 5//12 3//8 
f 4//10 6//14 26//58 24//54 
f 25//56 27//60 7//16 5//12 
f 6//14 8//18 28//62 26//58 
f 27//60 29//64 9//20 7//16 
f 8//18 10//22 30//66 28//62 
f 29//64 31//68 11//24 9//20 
f 10//22 12//26 32//70 30//66 
f 31//68 33//72 13//28 11//24 
f 12//26 14//30 34//74 32//70 
f 33//72 35//76 15//32 13//28 
f 14//30 16//34 36//78 34//74 
f 35//76 37//80 17//36 15//32 
f 16//34 18//38 38//82 36//78 
f 37//80 39//84 19//40 17//36 
f 18//38 20//43 40//87 38//82 
f 19//41 39//85 40//88 20//44 
